<svg xmlns="http://www.w3.org/2000/svg" viewBox="0 0 68 22.5" x="0px" y="0px"><path fill="#000000" d="M357.171573,452 L351.070368,452 L347.664101,457.1094 C346.872456,458.296867 345.127544,458.296867 344.335899,457.1094 L338,447.605551 L331.664101,457.1094 C330.872456,458.296867 329.127544,458.296867 328.335899,457.1094 L322,447.605551 L315.664101,457.1094 C314.872456,458.296867 313.127544,458.296867 312.335899,457.1094 L306,447.605551 L303.664101,451.1094 C303.293169,451.665798 302.668706,452 302,452 L298,452 C296.895431,452 296,451.104569 296,450 C296,448.895431 296.895431,448 298,448 L300.929632,448 L304.335899,442.8906 C305.127544,441.703133 306.872456,441.703133 307.664101,442.8906 L314,452.394449 L320.335899,442.8906 C321.127544,441.703133 322.872456,441.703133 323.664101,442.8906 L330,452.394449 L336.335899,442.8906 C337.127544,441.703133 338.872456,441.703133 339.664101,442.8906 L346,452.394449 L348.335899,448.8906 C348.706831,448.334202 349.331294,448 350,448 L357.171573,448 L353.585786,444.414214 C352.804738,443.633165 352.804738,442.366835 353.585786,441.585786 C354.366835,440.804738 355.633165,440.804738 356.414214,441.585786 L363.414214,448.585786 C364.195262,449.366835 364.195262,450.633165 363.414214,451.414214 L356.414214,458.414214 C355.633165,459.195262 354.366835,459.195262 353.585786,458.414214 C352.804738,457.633165 352.804738,456.366835 353.585786,455.585786 L357.171573,452 Z" transform="translate(-296 -441)"/><text x="0" y="33" fill="#000000" font-size="5px" font-weight="bold" font-family="'Helvetica Neue', Helvetica, Arial-Unicode, Arial, Sans-serif">Created by Andrejs Kirma</text><text x="0" y="38" fill="#000000" font-size="5px" font-weight="bold" font-family="'Helvetica Neue', Helvetica, Arial-Unicode, Arial, Sans-serif">from the Noun Project</text></svg>