<svg xmlns="http://www.w3.org/2000/svg" xmlns:xlink="http://www.w3.org/1999/xlink" version="1.1" x="0px" y="0px" viewBox="0 194 100 125" enable-background="new 0 194 100 100" xml:space="preserve"><g><g><path d="M67.122,264.694h15.015h0.953l-0.703-1.988l-0.227-0.645l-0.071-0.214c-0.083-0.215-0.12-0.44-0.12-0.667    c0-1.035,0.846-1.881,1.883-1.881c0.334,0,0.643,0.105,0.929,0.263v-0.024l3.763,2.523l3.941,2.633l3.905,2.62v0.022l-3.94,2.631    l-7.669,5.144v-0.024c-0.286,0.169-0.595,0.275-0.929,0.275c-1.037,0-1.883-0.845-1.883-1.881c0-0.239,0.037-0.464,0.12-0.68    l1.001-2.834H67.122c-4.573,0-8.323,3.739-8.323,8.312v15.645h-5.275V278.28C53.523,270.779,59.62,264.694,67.122,264.694z"/><path d="M38.248,206.549c0-0.343,0.092-0.665,0.254-0.941h-0.004h-0.01l7.78-11.611l0.004,0.007l0.004-0.007l7.776,11.611h-0.008    h-0.001c0.161,0.276,0.253,0.599,0.253,0.941c0,1.038-0.842,1.878-1.88,1.878c-0.229,0-0.454-0.042-0.656-0.119l-0.003,0.001    l-2.843-1.001v28.416c2.299-1.786,5.192-2.87,8.312-2.87h11.643l-1.002-2.845c-0.07-0.212-0.123-0.423-0.123-0.652    c0-1.037,0.845-1.88,1.883-1.88c0.352,0,0.668,0.087,0.949,0.244l7.67,5.138l3.923,2.638l-3.923,2.639l-7.67,5.137    c-0.281,0.158-0.598,0.247-0.949,0.247c-1.038,0-1.883-0.846-1.883-1.883c0-0.229,0.053-0.439,0.123-0.651l1.002-2.845H57.227    c-4.584,0-8.312,3.729-8.312,8.312v15.431v32.042h-5.273v-42.771v-4.702v-39.149l-2.854,1.006v-0.001    c-0.206,0.077-0.428,0.119-0.66,0.119C39.088,208.427,38.248,207.587,38.248,206.549z"/><path d="M3.628,251.048l3.922-2.641l7.671-5.136v0.017c0.28-0.175,0.598-0.264,0.949-0.264c1.038,0,1.884,0.844,1.884,1.884    c0,0.227-0.055,0.456-0.124,0.649v0.017l-1.003,2.831h8.496c7.502,0,13.598,6.108,13.598,13.598v31.922h-5.274v-31.922    c0-4.573-3.738-8.324-8.323-8.324h-8.499l0.002,0.007l1.004,2.851c0.069,0.211,0.124,0.439,0.124,0.668    c0,1.036-0.846,1.883-1.884,1.883c-0.352,0-0.669-0.106-0.949-0.266v0.018l-7.705-5.153l-3.906-2.621L3.628,251.048z"/></g></g><text x="0" y="309" fill="#000000" font-size="5px" font-weight="bold" font-family="'Helvetica Neue', Helvetica, Arial-Unicode, Arial, Sans-serif">Created by gilbert bages</text><text x="0" y="314" fill="#000000" font-size="5px" font-weight="bold" font-family="'Helvetica Neue', Helvetica, Arial-Unicode, Arial, Sans-serif">from the Noun Project</text></svg>