<svg xmlns="http://www.w3.org/2000/svg" xmlns:xlink="http://www.w3.org/1999/xlink" version="1.1" x="0px" y="0px" viewBox="0 0 100 125" style="enable-background:new 0 0 100 100;" xml:space="preserve"><g><path d="M53.2,70v-1.1l0.2-12.6V30c0-7.2,6.3-13.1,14.1-13.1c7.8,0,14.1,5.9,14.1,13.1v25.7H80l-2.3,5.9v10.1h3.6   C81.1,72.8,81,74,81,75.2c0,3.5,0.9,6.5,2.3,8.8c-1,1.2-2.3,2-3.6,2v1.7c1.8,0,3.4-0.8,4.7-2.3c1.3,1.4,2.9,2.3,4.7,2.3v-1.7   c-1.3,0-2.6-0.7-3.6-2c1.4-2.2,2.3-5.3,2.3-8.8c0-1.2-0.1-2.4-0.3-3.5H91V61.6l-2.3-5.9h-1.6V30c0-10.1-8.8-18.2-19.7-18.2   C56.6,11.8,47.8,20,47.8,30v1.1l-0.2,12.6V70c0,7.2-6.3,13.1-14.1,13.1S19.5,77.2,19.5,70V43.8h1.8l2.3-5.9V27.8h-3.6   c0.2-1.1,0.3-2.3,0.3-3.5c0-3.5-0.9-6.5-2.3-8.8c1-1.2,2.3-2,3.6-2v-1.7c-1.8,0-3.4,0.8-4.7,2.3c-1.3-1.4-2.9-2.3-4.7-2.3v1.7   c1.3,0,2.6,0.7,3.6,2c-1.4,2.2-2.3,5.3-2.3,8.8c0,1.2,0.1,2.4,0.3,3.5h-3.6V38l2.3,5.9h1.2V70c0,10.1,8.8,18.2,19.7,18.2   C44.4,88.2,53.2,80,53.2,70z M86,75.2c0,2.7-0.6,5.2-1.7,7.2c-1-1.9-1.7-4.4-1.7-7.2c0-1.2,0.1-2.4,0.4-3.5h2.6   C85.9,72.8,86,74,86,75.2z M15.3,24.3c0-2.7,0.6-5.2,1.7-7.2c1,1.9,1.7,4.4,1.7,7.2c0,1.2-0.1,2.4-0.4,3.5h-2.6   C15.5,26.7,15.3,25.6,15.3,24.3z"/></g><text x="0" y="115" fill="#000000" font-size="5px" font-weight="bold" font-family="'Helvetica Neue', Helvetica, Arial-Unicode, Arial, Sans-serif">Created by Adam Terpening</text><text x="0" y="120" fill="#000000" font-size="5px" font-weight="bold" font-family="'Helvetica Neue', Helvetica, Arial-Unicode, Arial, Sans-serif">from the Noun Project</text></svg>